# xmcd CD database file
#
# Track frame offsets:
#	150
#	12466
#	25722
#	39037
#	55876
#	65851
#	77655
#	89082
#	101243
#	115367
#	133298
#	145256
#
# Disc length: 2165 seconds
#
# Revision: 0
# Processed by: cddbd v1.5.2PL0 Copyright (c) Steve Scherf et al.
# Submitted via: CDex 1.51
#
DISCID=ab08730c
DTITLE=Jesse Dayton and Brennen Leigh - "Holdin Our Own" and other Country Gold Duets
DYEAR=2007
DGENRE=Country
TTITLE0=Let's Run Away
TTITLE1=Holdin' Our Own
TTITLE2=Two Step Program
TTITLE3=We Hung The Moon
TTITLE4=Somethin' To Brag About
TTITLE5=Brand New Heartache
TTITLE6=Take Me
TTITLE7=Long Legged Guitar Pickin' Man
TTITLE8=Back Street Affair
TTITLE9=We Lost It
TTITLE10=Somethin' Somebody Said
TTITLE11=Everything Looks Good (On The Outside)
EXTD=YEAR: 2007
EXTT0=
EXTT1=
EXTT2=
EXTT3=
EXTT4=
EXTT5=
EXTT6=
EXTT7=
EXTT8=
EXTT9=
EXTT10=
EXTT11=
PLAYORDER=
